<svg width="24" height="24" viewBox="0 0 24 24" fill="none" xmlns="http://www.w3.org/2000/svg">
<circle cx="12" cy="12" r="12" fill="#3864CA"/>
<path d="M12 4.125C7.65117 4.125 4.125 7.65117 4.125 12C4.125 16.3488 7.65117 19.875 12 19.875C16.3488 19.875 19.875 16.3488 19.875 12C19.875 7.65117 16.3488 4.125 12 4.125ZM12 18.5391C8.38945 18.5391 5.46094 15.6105 5.46094 12C5.46094 8.38945 8.38945 5.46094 12 5.46094C15.6105 5.46094 18.5391 8.38945 18.5391 12C18.5391 15.6105 15.6105 18.5391 12 18.5391Z" fill="white"/>
<path d="M15.071 14.2237L12.5644 12.4114V8.06085C12.5644 7.98351 12.5011 7.92023 12.4238 7.92023H11.5783C11.5009 7.92023 11.4376 7.98351 11.4376 8.06085V12.9019C11.4376 12.9476 11.4587 12.9898 11.4956 13.0161L14.4031 15.136C14.4663 15.1818 14.5542 15.1677 14.5999 15.1062L15.1027 14.4206C15.1484 14.3556 15.1343 14.2677 15.071 14.2237Z" fill="white"/>
</svg>
