<svg width="12" height="12" viewBox="0 0 12 12" fill="none" xmlns="http://www.w3.org/2000/svg">
<path d="M10.7814 5.67568L5.72153 1.28417C5.68269 1.25068 5.63314 1.23193 5.58091 1.23193H4.39564C4.29653 1.23193 4.251 1.35515 4.326 1.41943L9.01618 5.49086H1.17868C1.11975 5.49086 1.07153 5.53908 1.07153 5.59801V6.40158C1.07153 6.46051 1.11975 6.50872 1.17868 6.50872H9.01484L4.32466 10.5801C4.24966 10.6458 4.29519 10.7676 4.3943 10.7676H5.61975C5.64519 10.7676 5.67064 10.7583 5.68939 10.7409L10.7814 6.3239C10.8277 6.28358 10.8649 6.23378 10.8904 6.17787C10.9158 6.12196 10.929 6.06123 10.929 5.99979C10.929 5.93835 10.9158 5.87762 10.8904 5.82171C10.8649 5.7658 10.8277 5.716 10.7814 5.67568Z" fill="#52D69E"/>
</svg>
