<svg width="68" height="96" viewBox="0 0 68 96" fill="none" xmlns="http://www.w3.org/2000/svg">
<path d="M15.1667 13.7222C15.1667 11.1437 16.191 8.67084 18.0142 6.84757C19.8375 5.0243 22.3104 4 24.8889 4C27.4674 4 29.9403 5.0243 31.7635 6.84757C33.5868 8.67084 34.6111 11.1437 34.6111 13.7222C40.1937 16.3619 44.9526 20.471 48.378 25.6091C51.8034 30.7472 53.766 36.7205 54.0555 42.8889V57.4722C54.4214 60.4944 55.4917 63.3885 57.1803 65.9214C58.869 68.4544 61.1288 70.5555 63.7778 72.0556H-14C-11.351 70.5555 -9.09121 68.4544 -7.40256 65.9214C-5.71392 63.3885 -4.6436 60.4944 -4.27778 57.4722V42.8889C-3.98825 36.7205 -2.02562 30.7472 1.39975 25.6091C4.82513 20.471 9.58412 16.3619 15.1667 13.7222" stroke="#DFEEFF" strokeWidth="8" strokeLinecap="round" strokeLinejoin="round"/>
<path d="M10.3054 72.0555V76.9167C10.3054 80.7844 11.8419 84.4937 14.5768 87.2286C17.3117 89.9635 21.021 91.5 24.8888 91.5C28.7565 91.5 32.4658 89.9635 35.2007 87.2286C37.9356 84.4937 39.4721 80.7844 39.4721 76.9167V72.0555" stroke="#DFEEFF" strokeWidth="8" strokeLinecap="round" strokeLinejoin="round"/>
</svg>
