<svg width="24" height="24" viewBox="0 0 24 24" fill="none" xmlns="http://www.w3.org/2000/svg">
<circle cx="12" cy="12" r="12" fill="#FFD142"/>
<g clip-path="url(#clip0_1306_7250)">
<path d="M12 3C7.02991 3 3 7.02991 3 12C3 16.9701 7.02991 21 12 21C16.9701 21 21 16.9701 21 12C21 7.02991 16.9701 3 12 3ZM12 19.4732C7.87366 19.4732 4.52679 16.1263 4.52679 12C4.52679 7.87366 7.87366 4.52679 12 4.52679C16.1263 4.52679 19.4732 7.87366 19.4732 12C19.4732 16.1263 16.1263 19.4732 12 19.4732ZM12.9583 11.5339L12.448 11.4154V8.71741C13.2114 8.82188 13.6835 9.3 13.7638 9.88661C13.7739 9.96696 13.8422 10.0252 13.9225 10.0252H14.8246C14.919 10.0252 14.9933 9.94286 14.9853 9.84844C14.8627 8.59687 13.8321 7.7933 12.456 7.65469V6.99777C12.456 6.90937 12.3837 6.83705 12.2953 6.83705H11.7308C11.6424 6.83705 11.5701 6.90937 11.5701 6.99777V7.66071C10.1478 7.79933 9.03482 8.58482 9.03482 10.0513C9.03482 11.4094 10.0353 12.0643 11.0859 12.3154L11.5821 12.442V15.3087C10.6942 15.1902 10.196 14.7161 10.0935 14.0772C10.0815 14.0009 10.0132 13.9446 9.93482 13.9446H9.0067C8.91228 13.9446 8.83795 14.025 8.84598 14.1194C8.93638 15.2243 9.77411 16.2408 11.5621 16.3714V17.0022C11.5621 17.0906 11.6344 17.1629 11.7228 17.1629H12.2933C12.3817 17.1629 12.454 17.0906 12.454 17.0002L12.45 16.3634C14.023 16.2248 15.148 15.383 15.148 13.8723C15.146 12.4781 14.26 11.8554 12.9583 11.5339ZM11.5801 11.2085C11.4676 11.1763 11.3732 11.1462 11.2788 11.108C10.5998 10.8629 10.2844 10.4672 10.2844 9.95692C10.2844 9.22768 10.8368 8.81183 11.5801 8.71741V11.2085ZM12.448 15.3147V12.6288C12.5103 12.6469 12.5665 12.6609 12.6248 12.673C13.575 12.9623 13.8944 13.3641 13.8944 13.9808C13.8944 14.7663 13.3038 15.2384 12.448 15.3147Z" fill="white"/>
</g>
<defs>
<clipPath id="clip0_1306_7250">
<rect width="18" height="18" fill="white" transform="translate(3 3)"/>
</clipPath>
</defs>
</svg>
