<svg width="98" height="32" viewBox="0 0 98 32" fill="none" xmlns="http://www.w3.org/2000/svg">
<path fillRule="evenodd" clipRule="evenodd" d="M7.33401 4.61245L8.30324 5.90915C8.32486 5.89743 8.34678 5.88602 8.3687 5.8746C8.39061 5.86319 8.41253 5.85178 8.43414 5.84006C8.44996 5.61024 8.46837 5.38043 8.48678 5.15059C8.52848 4.6301 8.57019 4.10944 8.58185 3.58819C8.59266 3.14522 8.73317 2.87622 9.13908 2.6862C9.54528 2.49611 9.94436 2.28957 10.3433 2.08309C10.8715 1.80976 11.3994 1.53654 11.9432 1.30177C12.5665 1.03278 12.6638 0.639161 12.4789 0C9.99174 0.118455 7.72199 0.840287 5.61797 2.31603C6.20097 3.09678 6.76766 3.85484 7.32835 4.60488L7.32951 4.60643L7.33114 4.6086L7.33401 4.61245ZM17.8818 14.5292V5.74503C18.0879 5.86533 18.2929 5.98452 18.4969 6.10315L18.4974 6.10343L18.4975 6.10351L18.4978 6.10365C19.2351 6.53239 19.9596 6.95364 20.6752 7.39229C20.7713 7.45152 20.8313 7.68349 20.8085 7.81675C20.393 10.2475 19.3433 12.3921 17.8818 14.5292ZM14.4327 26.6547L14.4371 26.6713C14.4375 26.6718 14.4377 26.672 14.4376 26.672H14.4373L14.4376 26.6733L14.4361 26.672L14.4214 26.672L14.4213 26.6713L14.4208 26.6595L14.4196 26.6585L14.4327 26.6547ZM14.4327 26.6547C14.1443 25.5398 14.5566 24.8062 15.4584 24.0993C16.6761 23.1459 17.8495 22.1339 19.0231 21.1218L19.0231 21.1218L19.0232 21.1217L19.0232 21.1217L19.0232 21.1217L19.0233 21.1217L19.0233 21.1217L19.0233 21.1216L19.0233 21.1216L19.0234 21.1216L19.0234 21.1216L19.0234 21.1215L19.0235 21.1215L19.0235 21.1215L19.0235 21.1215L19.0235 21.1214L19.0236 21.1214L19.0236 21.1214L19.0236 21.1214L19.0237 21.1214L19.0237 21.1213L19.0237 21.1213L19.0237 21.1213L19.0238 21.1213L19.0238 21.1212L19.0238 21.1212L19.0239 21.1212L19.0241 21.121L19.0243 21.1208L19.0246 21.1206L19.0248 21.1204L19.025 21.1202L19.0253 21.12L19.0253 21.12C19.7329 20.5097 20.4405 19.8995 21.158 19.3019C21.409 19.0934 21.7884 18.9503 22.1091 18.9478C22.6819 18.9417 23.2548 18.984 23.8692 19.0294H23.8692H23.8692H23.8693H23.8693C24.1269 19.0484 24.3918 19.068 24.6671 19.0848C24.5604 19.2725 24.4603 19.4563 24.3626 19.6358L24.3625 19.6359L24.3625 19.6359L24.3625 19.636L24.3624 19.6361C24.1577 20.0121 23.9631 20.3696 23.7387 20.7061C21.6023 23.9056 18.6973 25.8947 14.936 26.5128C14.8209 26.5315 14.7089 26.5677 14.5966 26.6039C14.5422 26.6215 14.4877 26.6391 14.4327 26.6547ZM11.9617 26.6745L12.3508 26.674L13.1904 26.6732C13.6005 26.6729 14.0108 26.6726 14.4214 26.672C14.4366 26.9989 14.4507 27.3258 14.4649 27.6527L14.4649 27.653L14.4649 27.6533L14.465 27.6537L14.465 27.654L14.465 27.6543L14.465 27.6546L14.465 27.655L14.465 27.6553L14.465 27.6556L14.4651 27.656L14.4651 27.6563L14.4651 27.6566L14.4651 27.6569L14.4651 27.6573L14.4651 27.6576L14.4651 27.6579L14.4652 27.6582L14.4652 27.6586L14.4652 27.6589L14.4652 27.6592L14.4652 27.6595L14.4652 27.6599L14.4652 27.6602L14.4653 27.6604L14.4653 27.6605L14.4653 27.6607L14.4653 27.6609L14.4653 27.6611L14.4653 27.6613L14.4653 27.6614L14.4653 27.6616L14.4653 27.6618L14.4653 27.662L14.4653 27.6621L14.4654 27.6623L14.4654 27.6625L14.4654 27.6627L14.4654 27.6629L14.4654 27.663L14.4654 27.6632L14.4654 27.6634L14.4654 27.6636L14.4654 27.6637L14.4654 27.6639L14.4654 27.6641L14.4654 27.6643C14.4924 28.2852 14.5193 28.9059 14.5529 29.526C14.5852 30.1173 14.6265 30.7085 14.6688 31.3145V31.3145V31.3145V31.3145L14.6688 31.3146L14.6688 31.3147L14.6689 31.3154C14.6846 31.5413 14.7005 31.7692 14.7162 32H11.7199C11.7199 31.945 11.7191 31.8901 11.7184 31.8353V31.8352V31.8352V31.8352V31.8352V31.8351V31.8351V31.8351V31.8351V31.835V31.835V31.835V31.835V31.835V31.8349V31.8349V31.8349V31.8349V31.8348V31.8348V31.8348V31.8348V31.8347V31.8347C11.7169 31.7164 11.7153 31.5985 11.7211 31.4805C11.7748 30.3902 11.8297 29.2999 11.8845 28.2099L11.9617 26.6745ZM11.9617 26.6745L11.9625 26.6584C11.9613 26.659 11.9571 26.6626 11.9528 26.6662L11.9439 26.6739L11.9601 26.6597L11.944 26.6558C11.9529 26.4435 11.9585 26.2308 11.9641 26.0183V26.0182C11.9777 25.5008 11.9914 24.9836 12.0513 24.472C12.1078 23.9809 11.912 23.7403 11.5481 23.4898C11.275 23.3018 11.0008 23.115 10.7265 22.9281C9.60188 22.162 8.47605 21.3951 7.41696 20.542C6.40698 19.7289 5.37899 19.3969 4.10721 19.5845C3.55007 19.6666 2.97879 19.6465 2.39105 19.6258C2.12237 19.6163 1.85024 19.6067 1.57446 19.6067C1.59639 19.6863 1.61089 19.7441 1.6219 19.788C1.63922 19.857 1.64791 19.8916 1.66333 19.9226C1.72697 20.0509 1.79423 20.1768 1.86868 20.2977C3.43829 22.8654 5.58074 24.7459 8.37049 25.7602C9.16568 26.0489 9.99898 26.2278 10.832 26.4066L10.8321 26.4066L10.8321 26.4066L10.8321 26.4066L10.8322 26.4066L10.8322 26.4066L10.8322 26.4066L10.8322 26.4066L10.8322 26.4066L10.8323 26.4067L10.8323 26.4067L10.8323 26.4067L10.8323 26.4067L10.8323 26.4067L10.8324 26.4067L10.8324 26.4067L10.8324 26.4067L10.8324 26.4067L10.8324 26.4067L10.8325 26.4067L10.8325 26.4067L10.8325 26.4067L10.8325 26.4067L10.8325 26.4067L10.8326 26.4067L10.8326 26.4067L10.8326 26.4067C11.2043 26.4865 11.5759 26.5663 11.944 26.6558L11.9432 26.6745L11.9617 26.6745ZM19.4215 3.47393L19.4242 3.46883C19.6504 3.0419 19.8794 2.60971 20.1191 2.15685C18.1844 1.01549 16.2414 0.160396 13.8107 0.0851275C13.8781 0.223274 13.93 0.350005 13.9765 0.463831C14.0643 0.678391 14.1333 0.847095 14.2526 0.959964C15.2453 1.90384 16.2575 2.82573 17.2695 3.7475L17.2696 3.74756L17.6825 4.12369C17.8817 4.30513 18.0892 4.4759 18.3122 4.65949L18.3123 4.65956L18.3125 4.65974L18.3128 4.65996C18.4203 4.7484 18.5313 4.83981 18.6468 4.93683C18.9093 4.44075 19.1636 3.96073 19.4215 3.47393ZM4.75717 11.9861L4.7572 11.9861C5.56501 12.0856 6.31142 12.1775 6.61954 13.1546C6.74324 13.5482 6.77326 13.985 6.78047 14.4033C6.79512 15.2245 6.79245 16.0458 6.78977 16.867C6.78872 17.1896 6.78767 17.5122 6.78767 17.8348C6.75585 17.8521 6.72372 17.8691 6.6916 17.886C6.65947 17.903 6.62735 17.92 6.59552 17.9372C6.42342 17.8352 6.25127 17.7335 6.07914 17.6317L6.07854 17.6314L6.07795 17.631L6.07735 17.6307L6.07675 17.6303L6.07616 17.63L6.07556 17.6296L6.07496 17.6293L6.07474 17.6291C5.4508 17.2603 4.82724 16.8917 4.20808 16.5133C4.14564 16.4751 4.11681 16.3356 4.11681 16.2431C4.11394 15.1186 4.11412 13.9957 4.11431 12.8087L4.11441 11.8899C4.32835 11.9333 4.54488 11.9599 4.75717 11.9861ZM14.255 10.7497V17.0278C14.4618 16.9265 14.6571 16.8269 14.8453 16.7308C15.2531 16.5227 15.6282 16.3314 16.0168 16.1752C16.4912 15.9864 16.6281 15.6533 16.6317 15.1807C16.6351 14.7307 16.6443 14.281 16.6535 13.8313V13.8313V13.8312V13.8312V13.8311V13.831V13.831V13.8309V13.8309V13.8308V13.8307V13.8307V13.8306V13.8306V13.8305V13.8304V13.8304V13.8303V13.8303V13.8302V13.8301C16.6635 13.3381 16.6736 12.8461 16.6761 12.3538C16.6773 12.2156 16.6245 12.0009 16.5296 11.9479C15.9501 11.6252 15.3612 11.3212 14.7656 11.0138L14.7655 11.0138L14.7654 11.0137L14.7649 11.0134C14.5954 10.926 14.4255 10.8383 14.255 10.7497ZM12.5432 2.75842V2.75857V2.75879C12.5442 3.69825 12.5452 4.57271 12.5341 5.44644C12.5329 5.5649 12.4356 5.7179 12.3384 5.79564C11.742 6.26657 11.1393 6.7287 10.4905 7.22614L10.4904 7.22625C10.2977 7.37394 10.1011 7.52474 9.89927 7.6798C9.88028 7.56767 9.85937 7.46546 9.83982 7.36984L9.83981 7.36983C9.80127 7.18135 9.76796 7.01845 9.76477 6.85556C9.74916 5.85239 9.74315 4.84923 9.76477 3.84607C9.76837 3.67579 9.87525 3.43271 10.0086 3.35128C10.601 2.98735 11.2057 2.6452 11.8712 2.26867L11.8712 2.26866L11.8713 2.26862C12.088 2.14599 12.3112 2.01972 12.5425 1.88787C12.5425 2.18406 12.5428 2.47262 12.5432 2.75528V2.75548V2.75567V2.75587V2.75605V2.75624V2.75643V2.75661V2.75678V2.75696V2.75713V2.7573V2.75747V2.75763V2.75779V2.75795V2.75811V2.75826V2.75842ZM2.42724 15.4006L2.98194 15.7606C2.98194 15.4405 2.98295 15.1266 2.98394 14.8173V14.8173V14.8173V14.8173V14.8173V14.8172V14.8172V14.8172V14.8172V14.8172V14.8172V14.8172V14.8172V14.8171V14.8171V14.8171V14.8171V14.8171V14.8171C2.98701 13.8638 2.98993 12.9549 2.96272 12.0466C2.95792 11.8874 2.70332 11.6419 2.52799 11.5999C1.85187 11.4383 1.16134 11.3309 0.473205 11.2334C0.357917 11.2174 0.120133 11.3371 0.114129 11.4086C0.0528814 12.1552 0.0192555 12.9029 4.06544e-05 13.6519C-0.0023612 13.7481 0.102119 13.8814 0.192189 13.9406C0.92921 14.4289 1.67089 14.91 2.42724 15.4006ZM14.0833 8.08946V2.72075C14.1863 2.81114 14.2821 2.89445 14.373 2.97353C14.5366 3.11575 14.6844 3.24432 14.8303 3.37595C14.9837 3.51422 15.1382 3.65149 15.2926 3.78875L15.2926 3.78878L15.2927 3.78881L15.2927 3.78884L15.2927 3.78887L15.2928 3.7889L15.2928 3.78893L15.2928 3.78896L15.2929 3.78899L15.2929 3.78902L15.2929 3.78905L15.293 3.78908L15.293 3.78911L15.293 3.78914L15.293 3.78916L15.2931 3.78919L15.2932 3.78928L15.2934 3.78946L15.2934 3.78947L15.2934 3.78947L15.2934 3.78948L15.2934 3.78949L15.2934 3.78949L15.2934 3.7895L15.2934 3.7895L15.2934 3.78951L15.2934 3.78951L15.2934 3.78952L15.2934 3.78953L15.2934 3.78953L15.2935 3.78954L15.2935 3.78954L15.2935 3.78955L15.2935 3.78955L15.2935 3.78956C15.7575 4.20204 16.2216 4.61451 16.6593 5.05406C16.8214 5.21817 16.8766 5.52418 16.9211 5.77589C17.034 6.41382 16.6497 6.71366 16.1441 6.96167C15.6925 7.18395 15.2527 7.43228 14.7739 7.70269L14.7738 7.7027L14.7738 7.70274C14.5535 7.8271 14.325 7.95614 14.0833 8.08946ZM24.0366 6.59768C23.2163 8.01543 22.3961 9.43318 21.5062 10.9706C22.9641 10.8337 24.2792 10.7103 25.7695 10.5708C25.5004 9.86455 25.2441 9.19148 24.9943 8.53519L24.9909 8.52615L24.9783 8.4932L24.9724 8.47751L24.9663 8.46147C24.7209 7.81702 24.4816 7.18822 24.2419 6.55942C24.2077 6.56559 24.1735 6.57207 24.1393 6.57854L24.1393 6.57855C24.105 6.58503 24.0708 6.59151 24.0366 6.59768ZM11.0662 9.08105L11.0663 9.08116L11.0663 9.08123C11.4379 9.4375 11.7796 9.7652 12.1078 10.1069C12.1965 10.199 12.2385 10.3415 12.2792 10.4798L12.2793 10.4798C12.2903 10.5174 12.3013 10.5547 12.3131 10.5906C12.3298 10.6419 12.3257 10.7003 12.3216 10.7584C12.3197 10.7842 12.3179 10.8099 12.3179 10.8349V13.795C12.1021 13.6399 11.8917 13.4891 11.6857 13.3415C11.0264 12.8689 10.4114 12.4281 9.80199 11.9787C9.71913 11.917 9.64227 11.7739 9.64587 11.6727C9.65192 11.5115 9.65431 11.3489 9.6567 11.186V11.186V11.186V11.1859V11.1859V11.1859V11.1858V11.1858V11.1857V11.1857V11.1857V11.1856V11.1856V11.1856V11.1855V11.1855C9.66427 10.6694 9.67187 10.1509 9.79599 9.66515C9.8582 9.41956 10.0811 9.21754 10.3202 9.00086L10.3202 9.00086L10.3202 9.00085L10.3202 9.00085L10.3202 9.00084L10.3202 9.00084L10.3202 9.00083L10.3202 9.00082L10.3202 9.00082L10.3202 9.00081L10.3202 9.00081L10.3202 9.0008L10.3203 9.0008L10.3203 9.00079C10.4319 8.89961 10.5471 8.79524 10.651 8.68173C10.7938 8.8199 10.9319 8.95234 11.0662 9.08105ZM22.4886 11.9553C22.6615 13.2139 22.8212 14.375 22.9978 15.657C23.256 15.4067 23.505 15.1598 23.7493 14.9174L23.7494 14.9173L23.7496 14.9171L23.7497 14.9171L23.7497 14.9171L23.7497 14.917L23.7498 14.9169C24.3244 14.3469 24.8734 13.8023 25.4573 13.3002C25.9965 12.8375 25.904 12.3032 25.8055 11.7492C25.7827 11.6209 25.5269 11.4247 25.4044 11.4432C24.6707 11.5524 23.9397 11.6877 23.2031 11.824L23.203 11.824C22.9656 11.8679 22.7275 11.912 22.4886 11.9553ZM7.61512 14.8463C8.58244 16.225 9.52989 17.5742 10.4709 18.9143L11.8088 20.8196C11.7967 20.835 11.785 20.8508 11.7733 20.8665C11.7616 20.8822 11.7499 20.898 11.7379 20.9134C11.4526 20.747 11.1667 20.5815 10.8809 20.4161L10.8808 20.4161L10.8808 20.4161L10.8808 20.4161L10.8807 20.4161L10.8807 20.416L10.8807 20.416L10.8807 20.416L10.8806 20.416L10.8806 20.416L10.8806 20.4159L10.8805 20.4159L10.8805 20.4159L10.8805 20.4159C9.94143 19.8725 9.00247 19.3292 8.08468 18.7504C7.91175 18.6418 7.86972 18.2445 7.8457 17.9742C7.77647 17.2237 7.72561 16.4704 7.67275 15.6876L7.67274 15.6875L7.67274 15.6875L7.67274 15.6875L7.67274 15.6875L7.67273 15.6874L7.67273 15.6874L7.67273 15.6873L7.67272 15.6873L7.67272 15.6873L7.67272 15.6873L7.67272 15.6872C7.65407 15.411 7.63517 15.1311 7.61512 14.8463ZM0.276323 15.2609L0.276255 15.2609C0.201797 15.2905 0.12734 15.3201 0.0540834 15.3485C0.116945 15.5879 0.177089 15.8282 0.23723 16.0685C0.377007 16.627 0.516766 17.1854 0.690574 17.7324C1.03908 18.8262 1.06377 18.8244 2.1745 18.7444L2.19533 18.7429C2.23862 18.7397 2.28213 18.7388 2.32558 18.738H2.32565C2.38222 18.7368 2.43868 18.7357 2.49436 18.7294C2.90894 18.6804 3.32352 18.6299 3.77868 18.5745L3.781 18.5742L3.78189 18.5741L3.78333 18.5739L3.78373 18.5739L3.78718 18.5735L3.78791 18.5734L3.79351 18.5727C4.034 18.5434 4.2859 18.5127 4.55515 18.4801C3.03601 17.3363 1.65616 16.2986 0.276323 15.2609ZM6.49585 5.57846L6.73682 5.96449L6.73691 5.96463L6.73699 5.96477L6.73708 5.96491L6.73717 5.96505L6.73726 5.96519L6.73734 5.96533L6.73743 5.96547C7.16151 6.64473 7.58576 7.32426 8.00661 8.00555L8.0168 8.02205C8.06678 8.10278 8.12624 8.19884 8.1195 8.28194C8.03752 9.32954 7.94767 10.3771 7.85145 11.4991L7.80125 12.0848C7.0855 11.3519 6.75885 10.6609 6.73123 9.75522C6.70166 8.78148 6.60735 7.80958 6.51304 6.83778C6.47326 6.4279 6.43349 6.01804 6.39857 5.60808L6.49585 5.57846ZM16.5021 18.2447L16.5022 18.2433C16.5122 18.0098 16.5224 17.7705 16.5332 17.5239C16.3563 17.6486 16.1856 17.7687 16.0198 17.8853L16.0194 17.8855L16.0165 17.8876L16.0156 17.8882L16.0154 17.8883L16.0154 17.8884L16.015 17.8886L16.0146 17.8889C15.4577 18.2805 14.9562 18.6332 14.4604 18.9947C14.3763 19.0564 14.3007 19.1933 14.2983 19.297C14.2883 19.8768 14.2893 20.4572 14.2904 21.0801V21.0802V21.0802V21.0803V21.0803V21.0803V21.0804V21.0804V21.0804V21.0805V21.0805C14.2907 21.2807 14.2911 21.4853 14.2911 21.6957C14.4637 21.6201 14.6302 21.5477 14.7919 21.4774L14.792 21.4773L14.7923 21.4772L14.7924 21.4771L14.7927 21.477L14.793 21.4769L14.7931 21.4768C15.2915 21.26 15.7451 21.0627 16.1945 20.8542C16.2834 20.8134 16.3843 20.6839 16.3903 20.5901C16.4343 19.8334 16.4667 19.076 16.5021 18.2451L16.5021 18.245L16.5021 18.2447ZM4.76892 2.74666C4.90743 3.04113 5.06876 3.28952 5.21917 3.52111C5.5213 3.98628 5.77938 4.38365 5.72005 4.95041C5.68042 5.33292 5.53751 5.49332 5.19885 5.56119C5.0256 5.59591 4.85326 5.63831 4.68102 5.68068L4.68101 5.68068L4.68101 5.68068L4.681 5.68068L4.68099 5.68068L4.68098 5.68068L4.68098 5.68068L4.68097 5.68069L4.68096 5.68069L4.68095 5.68069C4.36969 5.75726 4.05875 5.83375 3.74333 5.86473C3.51635 5.88694 3.23053 5.76478 3.04319 5.61301C2.68171 5.32181 2.70453 5.00593 3.05159 4.65304C3.44173 4.25733 3.80872 3.83843 4.21121 3.37901L4.21123 3.37899L4.21124 3.37898C4.38857 3.17656 4.57279 2.96629 4.76892 2.74666ZM11.3254 16.8183C11.5494 17.0883 11.7734 17.3583 11.9937 17.6312L12.0293 17.6234C12.085 17.6112 12.1414 17.5988 12.1978 17.5856C12.1889 17.3737 12.2036 17.144 12.2182 16.9143C12.2508 16.4042 12.2834 15.894 12.0573 15.5792C11.5925 14.9328 10.978 14.3999 10.3635 13.867L10.3635 13.867C10.1112 13.6482 9.85896 13.4294 9.61705 13.2028C9.58944 13.2176 9.56183 13.232 9.53422 13.2465C9.50659 13.261 9.47896 13.2755 9.45133 13.2904C9.47012 13.4379 9.47444 13.5959 9.47877 13.754V13.754C9.48826 14.101 9.49776 14.4482 9.66029 14.6847C10.1716 15.4278 10.7483 16.1228 11.3254 16.8183ZM3.23687 10.723L3.22845 10.7221C2.24289 10.6227 1.28432 10.526 0.327888 10.4302C0.29066 9.72807 0.560868 9.49856 1.17334 9.53558C1.96595 9.58247 2.76817 9.59727 3.55838 9.53188C4.2309 9.47512 4.65963 9.70092 4.91302 10.329C4.95617 10.4324 5.01698 10.5285 5.09874 10.6577C5.1467 10.7335 5.20186 10.8207 5.26489 10.9274C4.57171 10.8577 3.8982 10.7897 3.23687 10.723ZM25.7926 15.1895C25.8524 14.9398 25.9122 14.69 25.9725 14.4404C25.9016 14.4218 25.832 14.4033 25.7623 14.3848C24.8148 15.4497 23.8672 16.5145 22.8428 17.6645C23.0294 17.709 23.2075 17.7526 23.3793 17.7947L23.3795 17.7947C23.87 17.9148 24.3101 18.0225 24.7547 18.1038C24.8688 18.1235 25.1042 17.9705 25.1342 17.857C25.3659 16.9714 25.5793 16.0804 25.7926 15.1895ZM3.7109 8.34981C3.22452 8.4233 2.76294 8.49287 2.2902 8.56412C1.77078 8.64241 1.23787 8.72273 0.64374 8.81252C0.992488 8.10239 1.30723 7.46266 1.6301 6.80644L1.63068 6.80526L2.14129 5.76725C2.71053 6.70255 3.17889 7.47374 3.7109 8.34981ZM21.3094 3.14129L21.3093 3.14124L21.3089 3.14086L21.3088 3.14076L21.3085 3.14054C21.2185 3.05966 21.1233 2.9742 21.0223 2.88116C20.6356 3.87075 20.2981 4.73201 19.945 5.63153C20.2043 5.76219 20.448 5.88575 20.6941 6.01048L20.6947 6.01077L20.6975 6.01217C20.8732 6.10125 21.0502 6.19094 21.2348 6.28426C21.3007 6.08065 21.3653 5.88262 21.4285 5.68865C21.6122 5.12562 21.7847 4.59675 21.9446 4.06447C21.9782 3.95342 21.9578 3.76834 21.8857 3.6906C21.7151 3.5057 21.5271 3.33683 21.3094 3.14129ZM21.8545 8.11538C22.0646 6.89505 22.2748 5.67472 22.515 4.28658C22.6172 4.42136 22.7154 4.5489 22.8099 4.67165L22.81 4.67186C23.0754 5.01653 23.3116 5.32338 23.525 5.64634C23.5838 5.73395 23.5226 5.96469 23.4457 6.07821C23.0963 6.59281 22.7358 7.0988 22.3753 7.60491L22.3748 7.60566L22.3744 7.60619L22.3742 7.60648C22.2432 7.79035 22.1123 7.97424 21.9818 8.15856L21.9493 8.1474C21.9174 8.13638 21.8859 8.12553 21.8545 8.11538ZM5.52451 7.37474C5.55017 7.0195 5.57577 6.66514 5.60357 6.28426C5.2359 6.38997 4.90314 6.48594 4.56553 6.58331L4.56461 6.58358L4.56406 6.58374L3.86943 6.78399C4.12237 7.12442 4.35977 7.44357 4.5989 7.76505C4.86161 8.11822 5.12641 8.4742 5.41622 8.86434C5.45602 8.32299 5.49032 7.84808 5.52451 7.37474ZM16.7265 10.5943L16.1039 10.1948C15.8094 10.0059 15.5207 9.82069 15.2002 9.61456C15.6387 9.31033 16.0421 9.03089 16.4749 8.7311L16.849 8.47197C16.8132 9.09518 16.7824 9.62873 16.7483 10.2183L16.7479 10.2239L16.7265 10.5943ZM21.6336 13.2139C21.7648 14.2425 21.8936 15.2535 22.0046 16.2665C22.0226 16.4331 21.9241 16.6737 21.7992 16.7848C21.0618 17.4411 20.3128 18.0842 19.5301 18.7561C19.274 18.976 19.0142 19.199 18.7501 19.4265C18.6765 19.2262 18.6031 19.0293 18.5307 18.835C18.3209 18.2717 18.1186 17.7288 17.9383 17.1784C17.9013 17.0668 18.0076 16.8868 18.0863 16.7536C18.0895 16.7483 18.0926 16.743 18.0956 16.7379C18.4312 16.1698 18.7693 15.6035 19.1074 15.0372C19.5823 14.2417 20.0572 13.4463 20.5251 12.6463C20.7508 12.26 21.0319 12.0898 21.5074 12.2193C21.5494 12.5531 21.5916 12.8844 21.6336 13.2139ZM19.1572 16.0555C19.1608 16.6638 19.67 17.192 20.2585 17.1969C20.8505 17.2018 21.3657 16.6885 21.3813 16.0765C21.3981 15.4719 20.9022 14.9339 20.3077 14.9129C19.6796 14.892 19.1548 15.4139 19.1572 16.0555Z" fill="url(#paint0_linear_983_10008)"/>
<path d="M46.7169 21.1014C48.4558 21.1014 49.688 20.6387 50.4135 19.7133C51.1391 18.7814 51.5019 17.3354 51.5019 15.3753C51.5019 14.4306 51.3924 13.6498 51.1735 13.0329C50.9546 12.4095 50.6168 11.9178 50.1602 11.558C49.7099 11.1916 49.1313 10.9314 48.4245 10.7771C47.7177 10.6165 46.8389 10.5361 45.7881 10.5361H33.6663V26.0563H38.3761V14.4306H45.3847C45.835 14.4306 46.2385 14.5817 46.595 14.8837C46.9578 15.1858 47.1517 15.5553 47.1767 15.9923C47.1767 16.5257 46.989 16.9434 46.6137 17.2455C46.2447 17.5411 45.8163 17.6889 45.3284 17.6889H39.0235L42.7389 21.1014H46.7169Z" fill="#3864CA"/>
<path d="M71.5517 14.768H71.6268V26.0563H75.9895V10.5361H68.6432L64.4587 19.6554L64.4025 19.5783L60.2274 10.5361H52.8717V26.0563H57.2532V14.768H57.3095L62.8825 26.0563H66.0537L71.5517 14.768Z" fill="#3864CA"/>
<path d="M95.6641 18.2962C95.1011 17.3258 94.116 16.7988 92.7086 16.7153C92.4397 16.6896 92.0988 16.6671 91.686 16.6478C91.2794 16.6285 90.7759 16.606 90.1754 16.5803C89.5812 16.5546 88.5148 16.5161 86.9761 16.4646C85.8627 16.4261 85.1904 16.3972 84.9589 16.3779C84.8839 16.3779 84.7556 16.3779 84.5743 16.3779C84.3053 16.3779 84.1708 16.3779 84.1708 16.3779C83.5578 16.3779 83.0762 16.3008 82.726 16.1465C82.3819 15.9859 82.2099 15.6581 82.2099 15.1633C82.2099 14.8805 82.2631 14.6556 82.3694 14.4885C82.482 14.315 82.629 14.1864 82.8104 14.1029C82.9918 14.0193 83.1826 13.9647 83.3827 13.939C83.5891 13.9069 83.8205 13.8908 84.077 13.8908C84.346 13.8908 88.2271 13.8908 95.7203 13.8908V10.5361C88.1395 10.5361 83.4202 10.5361 81.5626 10.5361C80.1677 10.5361 79.167 10.9378 78.5602 11.7411C77.9598 12.5444 77.6595 13.7494 77.6595 15.3561C77.6595 16.6607 77.8785 17.6407 78.3163 18.2962C78.9293 19.1767 79.9457 19.6586 81.3655 19.7422C81.647 19.7679 81.9848 19.7904 82.3788 19.8097C82.7791 19.829 83.2044 19.8482 83.6548 19.8675C84.1051 19.8868 85.2122 19.9286 86.9761 19.9928C88.1082 20.0314 88.7931 20.0571 89.0308 20.0699C89.4311 20.0699 89.7689 20.0828 90.0441 20.1085C90.3193 20.1278 90.5851 20.1792 90.8416 20.2627C91.098 20.3463 91.3044 20.4845 91.4608 20.6773C91.6234 20.8701 91.7048 21.1239 91.7048 21.4388C91.7048 21.7152 91.6453 21.9401 91.5265 22.1136C91.4139 22.2807 91.2607 22.4092 91.0668 22.4992C90.8791 22.5827 90.6727 22.6374 90.4475 22.6631C90.2224 22.6888 89.9753 22.7016 89.7063 22.7016C89.4374 22.7016 85.5563 22.7016 78.063 22.7016V26.0563C85.2873 26.0563 89.8346 26.0563 91.7048 26.0563C93.306 26.0563 94.4694 25.6836 95.1949 24.9381C95.9205 24.1862 96.2833 22.9715 96.2833 21.2942C96.2833 20.0989 96.0769 19.0995 95.6641 18.2962Z" fill="#3864CA"/>
<defs>
<linearGradient id="paint0_linear_983_10008" x1="12.9862" y1="13.5729" x2="12.9862" y2="32" gradientUnits="userSpaceOnUse">
<stop stop-color="#3B5EB0"/>
<stop offset="1" stopColor="#2C3182"/>
</linearGradient>
</defs>
</svg>
