<svg width="208" height="68" viewBox="0 0 208 68" fill="none" xmlns="http://www.w3.org/2000/svg">
<path fillRule="evenodd" clipRule="evenodd" d="M15.5845 9.80115L15.5857 9.80266C16.2747 10.7244 16.9596 11.6405 17.6444 12.557C17.6903 12.532 17.7369 12.5078 17.7835 12.4835C17.83 12.4593 17.8766 12.435 17.9226 12.4101C17.9561 11.9224 17.9952 11.4348 18.0343 10.947L18.0343 10.9469L18.0343 10.9468L18.0343 10.9468L18.0343 10.9467L18.0343 10.9466L18.0343 10.9465L18.0343 10.9464L18.0343 10.9464L18.0343 10.9463L18.0343 10.9462L18.0343 10.9461L18.0343 10.946L18.0344 10.9459L18.0344 10.9459L18.0344 10.9458L18.0344 10.9457L18.0344 10.9456L18.0344 10.9455L18.0344 10.9454L18.0344 10.9454L18.0344 10.9453L18.0344 10.9452L18.0344 10.9451L18.0344 10.945L18.0344 10.945C18.123 9.83894 18.2117 8.73255 18.2364 7.6249C18.2594 6.68358 18.558 6.11198 19.4206 5.70818C20.2835 5.30433 21.1314 4.86552 21.979 4.42685L21.979 4.42684L21.979 4.42682L21.9791 4.42681L21.9791 4.4268L21.9791 4.42679L21.9791 4.42678L21.9792 4.42677L21.9792 4.42675L21.9792 4.42674L21.9792 4.42673L21.9793 4.42672L21.9793 4.42671L21.9793 4.4267L21.9793 4.42669L21.9793 4.42667L21.9794 4.42666L21.9794 4.42665L21.9794 4.42664L21.9794 4.42663L21.9795 4.42662L21.9795 4.42661L21.9795 4.42659L21.9795 4.42658L21.9795 4.42657C23.1018 3.84574 24.2236 3.26515 25.3794 2.76625C26.7039 2.19465 26.9106 1.35822 26.5176 0C21.2325 0.251716 16.4092 1.78561 11.9382 4.92157C13.1812 6.58613 14.3892 8.20218 15.5845 9.80115ZM37.9989 30.8745V12.2082C38.4371 12.464 38.8731 12.7175 39.307 12.9698C40.8741 13.881 42.4138 14.7763 43.9347 15.7086C44.1389 15.8345 44.2665 16.3274 44.218 16.6106C43.335 21.776 41.1046 26.3331 37.9989 30.8745ZM30.6696 56.6413L30.6788 56.6765C30.6798 56.6775 30.6802 56.678 30.6798 56.678H30.6792L30.6798 56.6807L30.6766 56.678L30.6454 56.6781L30.6454 56.6766L30.6442 56.6514L30.6416 56.6492L30.6696 56.6413ZM30.6696 56.6413C30.0566 54.2721 30.9329 52.7131 32.849 51.2111C35.4369 49.185 37.9305 47.0344 40.4245 44.8834L40.4246 44.8834L40.4246 44.8833L40.4247 44.8833L40.4247 44.8833L40.4248 44.8832L40.4248 44.8832L40.4249 44.8832L40.4249 44.8831L40.425 44.8831L40.425 44.883L40.4251 44.883L40.4251 44.883L40.4251 44.8829L40.4252 44.8829L40.4252 44.8829L40.4253 44.8828L40.4253 44.8828L40.4254 44.8828L40.4254 44.8827L40.4255 44.8827L40.4255 44.8827L40.4256 44.8826L40.4256 44.8826L40.4256 44.8826L40.4257 44.8825L40.4257 44.8825C41.9303 43.5849 43.435 42.2872 44.9607 41.0166C45.494 40.5735 46.3004 40.2693 46.9818 40.2641C48.1991 40.2511 49.4164 40.341 50.7221 40.4375L50.7223 40.4375L50.7226 40.4375L50.723 40.4375C51.2701 40.478 51.8328 40.5195 52.4175 40.5551C52.1908 40.9541 51.9781 41.3447 51.7704 41.7262L51.7704 41.7262L51.7704 41.7262L51.7704 41.7263C51.3352 42.5255 50.9216 43.2852 50.4448 44.0005C45.9049 50.7994 39.7317 55.0262 31.7389 56.3398C31.4943 56.3794 31.2564 56.4563 31.0178 56.5333L31.0177 56.5333C30.9021 56.5707 30.7863 56.6081 30.6696 56.6413ZM25.4185 56.6832L26.247 56.6822C26.8411 56.6815 27.4353 56.6811 28.0296 56.6806C28.9011 56.68 29.773 56.6794 30.6454 56.6781C30.6779 57.3778 30.7083 58.0775 30.7386 58.777L30.7387 58.7779C30.796 60.1001 30.8534 61.422 30.9248 62.7428C30.9936 63.9993 31.0813 65.2557 31.1712 66.5436C31.2047 67.0242 31.2386 67.5091 31.2719 68H24.9047C24.9047 67.8831 24.9032 67.7664 24.9017 67.6499C24.8984 67.3981 24.8951 67.1471 24.9073 66.8961C25.0215 64.5785 25.1381 62.2609 25.2547 59.9441C25.3094 58.8569 25.3641 57.7699 25.4185 56.6832ZM25.4185 56.6832L25.4202 56.6492C25.4162 56.6513 25.3929 56.6715 25.3834 56.6798L25.4151 56.6518L25.3811 56.6435C25.3998 56.1923 25.4118 55.7405 25.4237 55.2889C25.4527 54.1892 25.4817 53.0902 25.6091 52.0029C25.729 50.9594 25.3131 50.4481 24.5398 49.9158C23.9593 49.5163 23.3766 49.1193 22.7937 48.7222L22.7936 48.7222C20.4039 47.0942 18.0116 45.4645 15.761 43.6517C13.6148 41.9238 11.4304 41.2185 8.72782 41.617C7.5439 41.7916 6.32994 41.7488 5.08098 41.7047H5.08085H5.08072H5.08058H5.08045H5.08031H5.08017H5.08003H5.0799H5.07976H5.07961H5.07947H5.07932H5.07917H5.07902H5.07887H5.07872H5.07857H5.07842H5.07827H5.07812H5.07797H5.07782H5.07767H5.07752H5.07736H5.07721C4.50749 41.6846 3.93048 41.6642 3.34572 41.6642C3.39233 41.8334 3.42313 41.9562 3.44653 42.0494C3.48334 42.1962 3.5018 42.2697 3.53457 42.3355C3.66982 42.6082 3.81273 42.8756 3.97095 43.1326C7.30637 48.589 11.8591 52.585 17.7873 54.7403C19.4771 55.3539 21.2478 55.734 23.018 56.114L23.0181 56.114L23.0184 56.1141C23.8085 56.2837 24.5985 56.4532 25.3811 56.6435L25.3794 56.6833L25.4185 56.6832ZM41.2709 7.38193C41.7534 6.47124 42.2418 5.5494 42.7532 4.5833C38.642 2.15791 34.5129 0.34084 29.3477 0.180896C29.491 0.474457 29.6012 0.743761 29.7001 0.985641C29.8867 1.44158 30.0334 1.80008 30.2868 2.03992C32.3962 4.04564 34.5471 6.00462 36.6977 7.96337L36.701 7.96642C36.9925 8.23186 37.2839 8.49729 37.5752 8.76283C37.9987 9.14845 38.4397 9.51138 38.9137 9.90156C39.1423 10.0898 39.3787 10.2843 39.6245 10.4908C40.169 9.46159 40.6971 8.46493 41.2318 7.45565L41.2417 7.43704L41.2503 7.42075L41.2632 7.39633L41.2709 7.38193ZM8.74312 25.266C9.19775 25.3582 9.65791 25.4149 10.1091 25.4705C11.8256 25.6819 13.4118 25.8772 14.0665 27.9536C14.3294 28.79 14.3932 29.7182 14.4085 30.6071C14.4396 32.3522 14.434 34.0972 14.4283 35.8423C14.426 36.5279 14.4238 37.2134 14.4238 37.899C14.3562 37.9357 14.288 37.9717 14.2198 38.0077C14.1515 38.0438 14.0832 38.0799 14.0155 38.1166C13.6467 37.8981 13.2779 37.68 12.909 37.462L12.9084 37.4616L12.9083 37.4616L12.9083 37.4616L12.9082 37.4615L12.9082 37.4615L12.9082 37.4615L12.9081 37.4615L12.9081 37.4614L12.9081 37.4614L12.908 37.4614L12.908 37.4614L12.908 37.4614L12.9079 37.4613L12.9079 37.4613L12.9079 37.4613L12.9078 37.4613L12.9078 37.4612L12.9078 37.4612L12.9077 37.4612L12.9077 37.4612C11.5822 36.6777 10.2575 35.8947 8.94218 35.0908C8.80948 35.0095 8.74823 34.7132 8.74823 34.5165C8.74212 32.1275 8.74251 29.7418 8.74292 27.22V27.2199V27.2198V27.2198V27.2197V27.2196V27.2196V27.2195V27.2194V27.2194V27.2193V27.2192V27.2192V27.2191V27.219V27.219V27.2189V27.2188V27.2188V27.2187V27.2186V27.2186L8.74312 25.266ZM30.2919 22.8432V36.1841C30.7313 35.9688 31.1462 35.7571 31.5463 35.5529L31.5464 35.5529L31.5464 35.5529C32.4129 35.1108 33.2099 34.7041 34.0357 34.3723C35.0437 33.9711 35.3346 33.2632 35.3423 32.2589C35.3496 31.3028 35.3691 30.3473 35.3886 29.3918C35.41 28.3453 35.4314 27.299 35.4367 26.2518C35.4393 25.9582 35.327 25.5019 35.1254 25.3892C33.8939 24.7035 32.6424 24.0575 31.3767 23.4043C31.0162 23.2182 30.6546 23.0315 30.2919 22.8432ZM26.6528 4.01172C26.6528 4.64355 26.6535 5.25903 26.6542 5.8619C26.6564 7.85846 26.6585 9.71685 26.635 11.5737C26.6324 11.8254 26.4257 12.1505 26.219 12.3157C24.9517 13.3166 23.6707 14.2987 22.2919 15.3559L22.2892 15.3579L22.2842 15.3618C21.8774 15.6737 21.462 15.9922 21.036 16.3196C20.9956 16.0813 20.9512 15.8641 20.9096 15.6609C20.8277 15.2604 20.7569 14.9142 20.7501 14.5681C20.717 12.4363 20.7042 10.3046 20.7501 8.1729C20.7578 7.81106 20.9849 7.29452 21.2682 7.12146C22.5269 6.34826 23.8118 5.62129 25.2256 4.82133L25.2257 4.82132L25.2258 4.82122L25.226 4.82109L25.2262 4.82101L25.2263 4.82096L25.2264 4.82089C25.687 4.56029 26.1613 4.29194 26.6528 4.01172ZM5.15803 32.7265L5.16366 32.7301L5.18684 32.7452C5.56824 32.9926 5.95141 33.2411 6.33662 33.4913C6.33662 32.812 6.33877 32.1458 6.34088 31.4894V31.4892V31.489V31.4889V31.4887V31.4886V31.4884V31.4882V31.4881V31.488V31.4878V31.4877V31.4875V31.4874V31.4873V31.4871V31.487V31.4869V31.4868C6.34739 29.461 6.3536 27.5292 6.29579 25.599C6.28558 25.2607 5.74457 24.7389 5.37198 24.6498C3.93522 24.3063 2.46784 24.0782 1.00556 23.871C0.760573 23.837 0.255283 24.0913 0.242523 24.2434C0.112373 25.8297 0.0409179 27.4187 8.63905e-05 29.0102C-0.00501755 29.2148 0.217004 29.4979 0.408401 29.6238C1.97377 30.6609 3.54904 31.6828 5.15542 32.7248L5.15588 32.7251L5.1565 32.7255L5.15767 32.7262L5.15803 32.7265ZM29.927 17.1901V5.7816C30.1446 5.97256 30.347 6.14863 30.5393 6.3158L30.5405 6.3169L30.5408 6.31714L30.5422 6.31835L30.5427 6.31876L30.5428 6.31883C30.8902 6.62101 31.2044 6.89421 31.5143 7.1739C31.841 7.46823 32.1697 7.76043 32.4984 8.05263C33.4846 8.9292 34.4708 9.80578 35.401 10.7399C35.7455 11.0886 35.8629 11.7389 35.9573 12.2738C36.1972 13.6294 35.3806 14.2665 34.3062 14.7935C33.3465 15.2659 32.4121 15.7936 31.3945 16.3682L31.3944 16.3682L31.3943 16.3683L31.3937 16.3686C30.9259 16.6328 30.4405 16.9069 29.927 17.1901ZM51.0744 14.0258L51.0577 14.0546C49.3214 17.0558 47.5845 20.058 45.7007 23.3126C48.7988 23.0215 51.5932 22.7593 54.7602 22.463C54.1888 20.9636 53.6449 19.5347 53.1145 18.1413C52.5718 16.7156 52.0433 15.3272 51.5141 13.9388C51.4414 13.9519 51.3686 13.9657 51.2959 13.9794C51.2232 13.9932 51.1504 14.007 51.0777 14.0201L51.0744 14.0258ZM23.5152 19.2969L23.5158 19.2974L23.5158 19.2975L23.5158 19.2975L23.5161 19.2977C24.3055 20.0547 25.0317 20.7511 25.729 21.4771C25.9176 21.673 26.0068 21.9758 26.0934 22.2696C26.1169 22.3495 26.1403 22.4287 26.1654 22.505C26.2008 22.614 26.192 22.7381 26.1833 22.8617V22.8617V22.8617V22.8617V22.8617V22.8618V22.8618V22.8618V22.8618V22.8619V22.8619C26.1795 22.9165 26.1756 22.9711 26.1756 23.0241V29.3144C25.7168 28.9848 25.2698 28.6644 24.832 28.3505C23.4309 27.3463 22.1242 26.4097 20.8292 25.4548C20.6531 25.3237 20.4898 25.0195 20.4975 24.8045C20.5103 24.4615 20.5154 24.1156 20.5205 23.7692V23.7692V23.7692V23.7692V23.7692V23.7691C20.5366 22.6725 20.5527 21.5706 20.8165 20.5384C20.9487 20.0166 21.4224 19.5873 21.9304 19.1268C22.1677 18.9118 22.4125 18.6899 22.6335 18.4487C22.9358 18.7413 23.2284 19.0219 23.5127 19.2945L23.5131 19.2949L23.5139 19.2957L23.5146 19.2963L23.5152 19.2969ZM47.7882 25.405C48.1557 28.0795 48.4951 30.5468 48.8703 33.2711C49.4193 32.7391 49.9486 32.214 50.468 31.6988C51.6892 30.4873 52.8559 29.33 54.0967 28.263C55.2425 27.2797 55.046 26.1444 54.8368 24.9671C54.7883 24.6944 54.2447 24.2775 53.9844 24.3168C52.4252 24.5488 50.8717 24.8363 49.3065 25.1259C48.8018 25.2193 48.296 25.3129 47.7882 25.405ZM22.2351 40.1707L22.2486 40.1899L22.2568 40.2016C23.2044 41.5511 24.149 42.8962 25.0936 44.2417C25.0681 44.2744 25.0433 44.3078 25.0185 44.3411L25.0183 44.3413C24.9935 44.3747 24.9686 44.4082 24.943 44.441C24.3368 44.0873 23.7293 43.7357 23.1218 43.3842L23.1217 43.3842L23.1217 43.3842L23.1216 43.3841L23.1216 43.3841L23.1215 43.3841L23.1214 43.384L23.1214 43.384L23.1213 43.3839L23.1212 43.3839L23.1212 43.3839L23.1211 43.3838L23.1211 43.3838L23.121 43.3838L23.1208 43.3837C21.1254 42.229 19.1302 41.0745 17.18 39.8445C16.8125 39.6138 16.7232 38.7695 16.6721 38.1953C16.525 36.6001 16.4169 34.9993 16.3045 33.3355L16.3045 33.3354L16.3045 33.3349C16.2649 32.7481 16.2247 32.1534 16.1821 31.5484C18.2323 34.4705 20.2405 37.3303 22.2351 40.1707ZM9.6797 39.2703C6.45146 36.8396 3.51925 34.6345 0.587041 32.4294L0.585919 32.4298C0.428071 32.4926 0.270229 32.5554 0.114927 32.6155C0.248508 33.1243 0.376314 33.635 0.504114 34.1456L0.504124 34.1456C0.801147 35.3324 1.09813 36.519 1.46747 37.6813C2.20804 40.0057 2.26051 40.002 4.62083 39.8319L4.66509 39.8288C4.75712 39.8219 4.84964 39.82 4.94202 39.8182C5.06223 39.8157 5.18219 39.8133 5.30053 39.7999C6.18722 39.6953 7.07391 39.5872 8.04854 39.4685L8.05135 39.4682L8.0679 39.4661C8.57692 39.4041 9.11003 39.3392 9.6797 39.2703ZM13.8037 11.8542L14.3155 12.6742L14.3157 12.6744L14.3158 12.6746L14.316 12.6749L14.3161 12.6751L14.3163 12.6754L14.3164 12.6756L14.3166 12.6758L14.3167 12.6761L14.3169 12.6763L14.317 12.6765L14.3172 12.6768C15.2183 14.1202 16.1198 15.5641 17.014 17.0118L17.0357 17.0469C17.1419 17.2184 17.2683 17.4225 17.2539 17.5991C17.0797 19.8253 16.8888 22.0514 16.6843 24.4355L16.6843 24.4356L16.5777 25.6803C15.0567 24.1228 14.3626 22.6544 14.3039 20.7298C14.241 18.6606 14.0406 16.5953 13.8402 14.5303L13.8402 14.5302L13.8402 14.5301L13.8402 14.53L13.8402 14.5299L13.8402 14.5298L13.8402 14.5298L13.8401 14.5297L13.8401 14.5296L13.8401 14.5295L13.8401 14.5294L13.8401 14.5293C13.7556 13.6586 13.6711 12.788 13.597 11.9172L13.8037 11.8542ZM35.0671 38.7698L35.0672 38.766L35.068 38.7488L35.0688 38.7287L35.0692 38.7206C35.0897 38.2391 35.1108 37.7461 35.133 37.2382C34.754 37.5055 34.3884 37.7626 34.0334 38.0122C32.8491 38.8451 31.7827 39.5951 30.7283 40.3637C30.5497 40.4948 30.3889 40.7858 30.3838 41.0061C30.3626 42.2384 30.3647 43.4722 30.367 44.7961L30.367 44.7978C30.3678 45.2227 30.3685 45.6569 30.3685 46.1033C30.7344 45.9432 31.0873 45.7897 31.4302 45.6405L31.4328 45.6394L31.4331 45.6392C32.4931 45.1781 33.4576 44.7586 34.4134 44.3151C34.6022 44.2285 34.8166 43.9532 34.8293 43.754C34.9229 42.1457 34.9917 40.5358 35.0671 38.7698ZM10.134 5.83665C10.4283 6.4624 10.7711 6.99023 11.0907 7.48236C11.7328 8.47084 12.2812 9.31525 12.1551 10.5196C12.0709 11.3324 11.7672 11.6733 11.0476 11.8175C10.6794 11.8913 10.3133 11.9814 9.94731 12.0714L9.9473 12.0714L9.9473 12.0714L9.94729 12.0714L9.94728 12.0714L9.94727 12.0714L9.94726 12.0714L9.94725 12.0714L9.94724 12.0714L9.94717 12.0714C9.28568 12.2342 8.62489 12.3967 7.95457 12.4625C7.47225 12.5097 6.86488 12.2502 6.46677 11.9277C5.69863 11.3088 5.74712 10.6376 6.48464 9.8877C7.3137 9.0468 8.09357 8.15662 8.94888 7.18033L8.94889 7.18031C9.32572 6.75019 9.71718 6.30335 10.134 5.83665ZM24.0664 35.739C24.5424 36.3126 25.0185 36.8864 25.4866 37.4664L25.5622 37.4497C25.6806 37.4238 25.8005 37.3974 25.9204 37.3693C25.9014 36.9191 25.9326 36.431 25.9637 35.9428C26.033 34.8588 26.1022 33.7748 25.6218 33.1059C24.6341 31.7323 23.3282 30.5997 22.0225 29.4674C21.4864 29.0024 20.9503 28.5375 20.4362 28.0558C20.3776 28.0873 20.3189 28.1181 20.2602 28.1489C20.2015 28.1797 20.1428 28.2105 20.0841 28.242C20.124 28.5555 20.1332 28.8914 20.1424 29.2273C20.1626 29.9646 20.1827 30.7023 20.5281 31.2049C21.6146 32.784 22.8401 34.261 24.0664 35.7389L24.0664 35.739ZM11.1879 23.2208C9.70886 23.072 8.27199 22.927 6.86115 22.7846L6.85629 22.7841L6.8338 22.7819L6.83325 22.7818L6.81388 22.7799L6.79523 22.778L6.79223 22.7777C4.72189 22.5688 2.7071 22.3655 0.696763 22.1641C0.617652 20.6721 1.19184 20.1844 2.49335 20.2631C4.17765 20.3627 5.88236 20.3942 7.56155 20.2552C8.99066 20.1346 9.90171 20.6145 10.4402 21.9491C10.5319 22.1689 10.6611 22.3731 10.8348 22.6477L10.8348 22.6477C10.9367 22.8087 11.0539 22.994 11.1879 23.2208ZM54.8093 32.2776C54.9364 31.7469 55.0635 31.2162 55.1915 30.6858C55.0409 30.6464 54.8929 30.6071 54.7449 30.5678C52.7314 32.8306 50.7179 35.0934 48.5411 37.5371C48.9377 37.6317 49.3162 37.7244 49.6815 37.8138L49.6816 37.8138C50.7239 38.0689 51.659 38.2978 52.6038 38.4706C52.8462 38.5125 53.3464 38.1874 53.4102 37.9462C53.9025 36.0641 54.3559 34.1709 54.8093 32.2776ZM7.88567 17.7433C6.85203 17.8995 5.87112 18.0474 4.86646 18.1988C3.76276 18.3651 2.63039 18.5358 1.36795 18.7266C2.10932 17.217 2.77837 15.8571 3.46473 14.4621L3.46497 14.4616L3.46811 14.4552C3.8202 13.7396 4.17688 13.0147 4.55025 12.2554C5.75988 14.2429 6.75515 15.8817 7.88567 17.7433ZM45.2824 6.67526C45.0905 6.50291 44.8878 6.3208 44.6723 6.12247C43.8506 8.22534 43.1334 10.0555 42.3832 11.967C42.9341 12.2447 43.4521 12.5072 43.975 12.7723L43.9763 12.7729L43.9779 12.7737C44.3528 12.9637 44.7302 13.155 45.124 13.3541C45.263 12.9242 45.3994 12.5061 45.533 12.0965L45.535 12.0904L45.5356 12.0885L45.5356 12.0883C45.9259 10.8919 46.2924 9.76809 46.6322 8.637C46.7037 8.40102 46.6603 8.00771 46.5072 7.84253C46.1446 7.44962 45.7451 7.09078 45.2824 6.67526ZM46.4408 17.2452C46.8874 14.652 47.334 12.0588 47.8444 9.10898C48.0616 9.39553 48.2703 9.6667 48.4712 9.92767C49.0351 10.6601 49.5371 11.3122 49.9906 11.9985C50.1156 12.1846 49.9855 12.675 49.8221 12.9162C49.0795 14.0097 48.3136 15.085 47.5475 16.1605C47.2684 16.5523 46.9893 16.9442 46.7113 17.3369L46.6423 17.3132C46.5744 17.2898 46.5076 17.2668 46.4408 17.2452ZM11.7396 15.6712L11.7398 15.6685L11.7399 15.6676C11.7943 14.914 11.8486 14.1621 11.9076 13.354C11.1265 13.5786 10.4196 13.7825 9.70243 13.9894L9.6995 13.9902L9.69885 13.9904L9.69816 13.9906C9.21933 14.1287 8.73583 14.2681 8.22254 14.416C8.76001 15.1394 9.26446 15.8175 9.77259 16.5006L9.77379 16.5022C10.3317 17.2522 10.894 18.0082 11.5095 18.8367C11.594 17.6867 11.6669 16.6778 11.7395 15.6722L11.7396 15.6712ZM34.2294 21.6694L34.2215 21.6643L34.2164 21.6611C33.5922 21.2607 32.9799 20.8679 32.3003 20.431C33.2322 19.7844 34.0895 19.1906 35.0093 18.5536L35.8042 18.0029C35.7279 19.3303 35.6622 20.4663 35.5896 21.7225L35.5893 21.7271L35.5439 22.5128C35.0834 22.2171 34.6535 21.9414 34.2294 21.6694ZM45.9714 28.0793C46.2501 30.2652 46.524 32.4135 46.7598 34.5664C46.7981 34.9203 46.5888 35.4316 46.3234 35.6676C44.7563 37.0624 43.1645 38.429 41.5012 39.8569C40.957 40.3241 40.4051 40.7979 39.844 41.2814C39.6875 40.8556 39.5317 40.4373 39.3778 40.0242C38.9318 38.8273 38.5021 37.6736 38.1188 36.5041C38.0403 36.267 38.2662 35.8845 38.4334 35.6014C38.4401 35.5901 38.4467 35.5789 38.4531 35.568C39.1664 34.3608 39.8849 33.1572 40.6034 31.9537C41.6125 30.2635 42.6215 28.5733 43.6158 26.8733C44.0955 26.0526 44.6927 25.6908 45.7033 25.9661C45.7924 26.6753 45.8822 27.3792 45.9714 28.0793ZM40.7091 34.118C40.7167 35.4107 41.7988 36.5329 43.0492 36.5434C44.3073 36.5539 45.4021 35.4631 45.4353 34.1626C45.471 32.8778 44.4171 31.7346 43.1539 31.69C41.8192 31.6454 40.704 32.7545 40.7091 34.118Z" fill="url(#paint0_linear_791_1699)"/>
<path d="M99.2735 44.8405C102.969 44.8405 105.587 43.8572 107.129 41.8907C108.671 39.9105 109.441 36.8378 109.441 32.6726C109.441 30.6651 109.209 29.0058 108.744 27.6948C108.278 26.3701 107.561 25.3254 106.59 24.5607C105.633 23.7822 104.404 23.2292 102.902 22.9014C101.4 22.56 99.5327 22.3893 97.2997 22.3893H71.5408V55.3696H81.5493V30.6651H96.4424C97.3994 30.6651 98.2567 30.986 99.0143 31.6279C99.7852 32.2697 100.197 33.055 100.25 33.9836C100.25 35.1171 99.8517 36.0048 99.0542 36.6466C98.27 37.2748 97.3595 37.5889 96.3228 37.5889H82.9249L90.8201 44.8405H99.2735Z" fill="#3864CA"/>
<path d="M152.047 31.3821H152.207V55.3696H161.478V22.3893H145.867L136.975 41.7678L136.855 41.6039L127.983 22.3893H112.352V55.3696H121.663V31.3821H121.783L133.625 55.3696H140.364L152.047 31.3821Z" fill="#3864CA"/>
<path d="M203.286 38.8795C202.09 36.8173 199.996 35.6975 197.006 35.52C196.434 35.4653 195.71 35.4175 194.833 35.3766C193.969 35.3356 192.899 35.2878 191.623 35.2332C190.36 35.1786 188.094 35.0966 184.824 34.9874C182.458 34.9054 181.029 34.844 180.538 34.803C180.378 34.803 180.106 34.803 179.72 34.803C179.149 34.803 178.863 34.803 178.863 34.803C177.56 34.803 176.537 34.6391 175.793 34.3114C175.062 33.97 174.696 33.2735 174.696 32.2219C174.696 31.621 174.809 31.1431 175.035 30.788C175.274 30.4193 175.587 30.1462 175.972 29.9686C176.358 29.7911 176.763 29.675 177.188 29.6204C177.627 29.5521 178.119 29.518 178.664 29.518C179.235 29.518 187.482 29.518 203.406 29.518V22.3893C187.296 22.3893 177.268 22.3893 173.32 22.3893C170.356 22.3893 168.23 23.2428 166.94 24.9499C165.664 26.6569 165.027 29.2175 165.027 32.6316C165.027 35.4039 165.492 37.4865 166.422 38.8795C167.725 40.7504 169.885 41.7746 172.902 41.9522C173.5 42.0068 174.218 42.0546 175.055 42.0956C175.906 42.1365 176.809 42.1775 177.766 42.2185C178.723 42.2594 181.076 42.3482 184.824 42.4848C187.23 42.5667 188.685 42.6213 189.19 42.6486C190.041 42.6486 190.759 42.676 191.344 42.7306C191.928 42.7716 192.493 42.8808 193.038 43.0583C193.583 43.2359 194.022 43.5295 194.354 43.9392C194.7 44.3489 194.873 44.8883 194.873 45.5575C194.873 46.1447 194.746 46.6227 194.494 46.9914C194.255 47.3465 193.929 47.6196 193.517 47.8108C193.118 47.9883 192.679 48.1044 192.201 48.159C191.722 48.2136 191.197 48.241 190.626 48.241C190.054 48.241 181.807 48.241 165.884 48.241V55.3696C181.235 55.3696 190.898 55.3696 194.873 55.3696C198.275 55.3696 200.747 54.5776 202.289 52.9934C203.831 51.3956 204.602 48.8145 204.602 45.2502C204.602 42.7101 204.163 40.5865 203.286 38.8795Z" fill="#3864CA"/>
<defs>
<linearGradient id="paint0_linear_791_1699" x1="27.5957" y1="28.8424" x2="27.5957" y2="68" gradientUnits="userSpaceOnUse">
<stop stop-color="#3B5EB0"/>
<stop offset="1" stop-color="#2C3182"/>
</linearGradient>
</defs>
</svg>
